HIERARCHY
ROOT Hips
{
	OFFSET	0.00	0.00	0.00
	CHANNELS 6 Xposition Yposition Zposition Zrotation Xrotation Yrotation
	JOINT LeftUpLeg
	{
		OFFSET	 0.126116	-0.065224	 0.014019
		CHANNELS 3 Zrotation Xrotation Yrotation
		JOINT LeftLeg
		{
			OFFSET	 0.000000	 0.569914	 0.000000
			CHANNELS 3 Zrotation Xrotation Yrotation
			JOINT LeftFoot
			{
				OFFSET	 0.000000	 0.544423	 0.000000
				CHANNELS 3 Zrotation Xrotation Yrotation
				JOINT LeftToeBase
				{
					OFFSET	 0.000000	 0.207117	 0.000000
					CHANNELS 3 Zrotation Xrotation Yrotation
					End Site
					{
						OFFSET	 0.000000	 0.207117	 0.000000
					}
				}
			}
		}
	}
	JOINT RightUpLeg
	{
		OFFSET	-0.124023	-0.065224	 0.008373
		CHANNELS 3 Zrotation Xrotation Yrotation
		JOINT RightLeg
		{
			OFFSET	 0.000000	 0.570047	 0.000000
			CHANNELS 3 Zrotation Xrotation Yrotation
			JOINT RightFoot
			{
				OFFSET	 0.000000	 0.544354	 0.000000
				CHANNELS 3 Zrotation Xrotation Yrotation
				JOINT RightToeBase
				{
					OFFSET	 0.000000	 0.207540	 0.000000
					CHANNELS 3 Zrotation Xrotation Yrotation
					End Site
					{
						OFFSET	 0.000000	 0.207540	 0.000000
					}
				}
			}
		}
	}
	JOINT Spine
	{
		OFFSET	 0.000184	 0.117403	 0.007763
		CHANNELS 3 Zrotation Xrotation Yrotation
		JOINT Spine1
		{
			OFFSET	 0.000000	 0.137269	 0.000000
			CHANNELS 3 Zrotation Xrotation Yrotation
			JOINT Spine2
			{
				OFFSET	 0.000000	 0.156879	 0.000000
				CHANNELS 3 Zrotation Xrotation Yrotation
				JOINT LeftShoulder
				{
					OFFSET	 0.080501	 0.160143	 0.002496
					CHANNELS 3 Zrotation Xrotation Yrotation
					JOINT LeftArm
					{
						OFFSET	 0.000000	 0.164363	 0.000000
						CHANNELS 3 Zrotation Xrotation Yrotation
						JOINT LeftForeArm
						{
							OFFSET	 0.000000	 0.364576	 0.000000
							CHANNELS 3 Zrotation Xrotation Yrotation
							JOINT LeftHand
							{
								OFFSET	 0.000000	 0.360812	 0.000000
								CHANNELS 3 Zrotation Xrotation Yrotation
								JOINT LeftHandIndex1
								{
									OFFSET	 0.000000	 0.086006	 0.000000
									CHANNELS 3 Zrotation Xrotation Yrotation
									JOINT LeftHandIndex2
									{
										OFFSET	 0.000000	 0.047237	 0.000000
										CHANNELS 3 Zrotation Xrotation Yrotation
										JOINT LeftHandIndex3
										{
											OFFSET	-0.004284	 0.038165	 0.000551
											CHANNELS 3 Zrotation Xrotation Yrotation
											End Site
											{
												OFFSET	-0.004284	 0.038165	 0.000551
											}
										}
									}
								}
							}
						}
					}
				}
				JOINT Neck
				{
					OFFSET	 0.000000	 0.176489	 0.000000
					CHANNELS 3 Zrotation Xrotation Yrotation
					JOINT Head
					{
						OFFSET	 0.000000	 0.077941	 0.001747
						CHANNELS 3 Zrotation Xrotation Yrotation
						End Site
						{
							OFFSET	 0.000000	 0.077941	 0.001747
						}
					}
				}
				JOINT RightShoulder
				{
					OFFSET	-0.080363	 0.159706	-0.000306
					CHANNELS 3 Zrotation Xrotation Yrotation
					JOINT RightArm
					{
						OFFSET	 0.000000	 0.164196	 0.000000
						CHANNELS 3 Zrotation Xrotation Yrotation
						JOINT RightForeArm
						{
							OFFSET	 0.000000	 0.365611	 0.000000
							CHANNELS 3 Zrotation Xrotation Yrotation
							JOINT RightHand
							{
								OFFSET	 0.000000	 0.360648	 0.000000
								CHANNELS 3 Zrotation Xrotation Yrotation
								JOINT RightHandIndex1
								{
									OFFSET	 0.000000	 0.069977	 0.000000
									CHANNELS 3 Zrotation Xrotation Yrotation
									JOINT RightHandIndex2
									{
										OFFSET	 0.000000	 0.052305	 0.000000
										CHANNELS 3 Zrotation Xrotation Yrotation
										JOINT RightHandIndex3
										{
											OFFSET	 0.009002	 0.042196	 0.000782
											CHANNELS 3 Zrotation Xrotation Yrotation
											End Site
											{
												OFFSET	 0.009002	 0.042196	 0.000782
											}
										}
									}
								}
							}
						}
					}
				}
			}
		}
	}
}
MOTION
Frames:    10
Frame Time: 0.03333334
 0.001596	 1.271255	 0.063398	-0.065945	-0.008777	-179.996000	 177.355500	 1.230120	 17.805600	 2.621683	-12.183890	 0.022395	-2.132200	 71.705470	 4.112420	 1.292262	 28.425850	-2.713146	-177.353700	 1.748287	-17.809070	-2.681897	-12.821580	-0.035144	 2.314746	 71.817030	-4.205757	-1.288183	 28.361890	 2.710176	-0.056031	 2.715319	 1.550446	-0.452008	 3.673578	 0.828443	 0.372354	-4.690407	-2.372558	-101.478000	 1.740680	 90.353390	-1.823032	 64.503780	 4.676814	 6.094526	 12.525610	 0.785621	 10.376590	-3.852636	 6.001114	-6.580301	 5.266122	 0.000000	 0.000000	 0.000000	 0.000000	 0.000000	 0.000000	 0.000000	 0.089846	-3.783161	 0.005928	 0.006343	 1.250200	-0.581349	 101.796200	-0.213318	-89.955450	-1.076688	 63.504760	-7.379455	-8.888365	 13.335830	 2.315056	-13.071540	-7.498240	 6.287515	 15.208500	 5.323790	 0.000000	 0.000000	 0.000000	 0.000000	 0.000000	 0.000000	 0.000000
 0.001596	 1.271255	 0.063398	-0.065943	-0.008780	-179.996000	 177.355500	 1.230121	 17.805630	 2.621683	-12.183890	 0.022394	-2.132154	 71.705500	 4.112372	 1.292262	 28.425850	-2.713146	-177.353700	 1.748285	-17.809070	-2.681898	-12.821570	-0.035146	 2.314698	 71.817020	-4.205703	-1.288183	 28.361890	 2.710176	-0.056024	 2.715323	 1.550416	-0.452004	 3.673580	 0.828414	 0.372358	-4.690422	-2.372564	-101.478000	 1.740686	 90.353400	-1.828736	 64.491810	 4.679917	 6.098795	 12.534090	 0.784754	 10.374650	-3.864319	 6.002303	-6.580301	 5.266122	 0.000000	 0.000000	 0.000000	 0.000000	 0.000000	 0.000000	 0.000000	 0.089846	-3.783161	 0.005928	 0.006343	 1.250165	-0.581340	 101.796200	-0.213324	-89.955430	-0.737961	 63.031660	-7.674988	-9.493078	 14.199760	 2.437428	-12.940740	-7.942064	 5.973387	 15.208500	 5.323790	 0.000000	 0.000000	 0.000000	 0.000000	 0.000000	 0.000000	 0.000000
 0.001596	 1.271255	 0.063398	-0.065945	-0.008777	-179.996000	 177.355500	 1.230120	 17.805600	 2.621683	-12.183890	 0.022395	-2.132200	 71.705470	 4.112420	 1.292262	 28.425850	-2.713146	-177.353700	 1.748287	-17.809070	-2.681896	-12.821580	-0.035144	 2.314726	 71.817010	-4.205737	-1.288183	 28.361890	 2.710176	-0.056031	 2.715319	 1.550446	-0.452008	 3.673578	 0.828442	 0.372355	-4.690397	-2.372568	-101.478000	 1.740672	 90.353390	-1.837468	 64.474100	 4.684259	 6.105315	 12.546980	 0.783307	 10.371770	-3.880905	 6.004985	-6.580301	 5.266122	 0.000000	 0.000000	 0.000000	 0.000000	 0.000000	 0.000000	 0.000000	 0.089846	-3.783161	 0.005928	 0.006343	 1.250200	-0.581349	 101.796200	-0.213317	-89.955440	-0.311564	 62.388150	-8.042388	-10.320960	 15.369530	 2.617539	-12.770450	-8.544439	 5.533140	 15.208500	 5.323790	 0.000000	 0.000000	 0.000000	 0.000000	 0.000000	 0.000000	 0.000000
 0.001596	 1.271255	 0.063398	-0.065945	-0.008777	-179.996000	 177.355500	 1.230120	 17.805600	 2.621683	-12.183890	 0.022395	-2.132200	 71.705470	 4.112420	 1.292262	 28.425850	-2.713146	-177.353700	 1.748287	-17.809070	-2.681897	-12.821580	-0.035144	 2.314746	 71.817030	-4.205757	-1.288183	 28.361890	 2.710176	-0.056031	 2.715319	 1.550446	-0.452008	 3.673578	 0.828443	 0.372354	-4.690407	-2.372558	-101.478000	 1.740680	 90.353390	-1.847213	 64.453830	 4.689253	 6.112618	 12.561520	 0.781683	 10.368540	-3.899294	 6.007582	-6.580301	 5.266122	 0.000000	 0.000000	 0.000000	 0.000000	 0.000000	 0.000000	 0.000000	 0.089846	-3.783161	 0.005928	 0.006343	 1.250200	-0.581349	 101.796200	-0.213318	-89.955450	 0.102489	 61.701350	-8.393588	-11.212460	 16.611220	 2.828538	-12.596760	-9.185482	 5.047048	 15.208500	 5.323790	 0.000000	 0.000000	 0.000000	 0.000000	 0.000000	 0.000000	 0.000000
 0.001596	 1.271255	 0.063398	-0.065954	-0.008782	-179.996000	 177.355500	 1.230134	 17.805590	 2.621683	-12.183890	 0.022397	-2.132268	 71.705500	 4.112495	 1.292262	 28.425850	-2.713146	-177.353700	 1.748292	-17.809070	-2.681897	-12.821580	-0.035145	 2.314718	 71.817020	-4.205725	-1.288183	 28.361890	 2.710176	-0.056042	 2.715326	 1.550417	-0.452019	 3.673575	 0.828418	 0.372366	-4.690422	-2.372551	-101.478000	 1.740656	 90.353370	-1.859096	 64.429490	 4.695212	 6.121454	 12.579020	 0.779771	 10.364660	-3.920454	 6.010791	-6.580301	 5.266122	 0.000000	 0.000000	 0.000000	 0.000000	 0.000000	 0.000000	 0.000000	 0.089846	-3.783161	 0.005928	 0.006343	 1.250165	-0.581340	 101.796200	-0.213313	-89.955460	 0.516285	 60.939720	-8.736579	-12.212480	 17.980490	 3.085687	-12.411970	-9.894284	 4.489060	 15.208500	 5.323790	 0.000000	 0.000000	 0.000000	 0.000000	 0.000000	 0.000000	 0.000000
 0.001596	 1.271255	 0.063398	-0.065945	-0.008777	-179.996000	 177.355500	 1.230167	 17.805620	 2.621711	-12.184000	 0.022403	-2.132156	 71.705540	 4.112352	 1.292262	 28.425850	-2.713146	-177.353600	 1.748325	-17.809090	-2.681921	-12.821690	-0.035151	 2.314716	 71.817100	-4.205712	-1.288183	 28.361890	 2.710176	-0.056031	 2.715319	 1.550418	-0.452009	 3.673577	 0.828416	 0.372362	-4.690431	-2.372562	-101.478000	 1.740679	 90.353390	-1.873292	 64.399610	 4.702927	 6.132212	 12.600310	 0.777369	 10.360130	-3.945317	 6.014013	-6.580301	 5.266122	 0.000000	 0.000000	 0.000000	 0.000000	 0.000000	 0.000000	 0.000000	 0.089846	-3.783161	 0.005928	 0.006343	 1.250200	-0.581349	 101.796200	-0.213317	-89.955440	 0.930771	 60.077690	-9.070107	-13.360640	 19.520700	 3.407361	-12.210420	-10.694260	 3.836133	 15.208500	 5.323790	 0.000000	 0.000000	 0.000000	 0.000000	 0.000000	 0.000000	 0.000000
 0.001596	 1.271255	 0.063398	-0.065945	-0.008777	-179.996000	 177.355500	 1.230170	 17.805480	 2.621717	-12.184040	 0.022406	-2.132553	 71.705580	 4.112794	 1.292262	 28.425850	-2.713146	-177.353700	 1.748287	-17.809070	-2.681896	-12.821580	-0.035144	 2.314726	 71.817010	-4.205737	-1.288183	 28.361890	 2.710176	-0.056025	 2.715319	 1.550445	-0.452019	 3.673403	 0.828441	 0.372361	-4.690289	-2.372563	-101.478000	 1.740677	 90.353390	-1.891161	 64.361870	 4.712301	 6.145673	 12.626980	 0.774475	 10.354510	-3.975037	 6.018340	-6.580301	 5.266122	 0.000000	 0.000000	 0.000000	 0.000000	 0.000000	 0.000000	 0.000000	 0.089846	-3.783161	 0.005928	 0.006343	 1.250200	-0.581349	 101.796200	-0.213330	-89.955440	 1.349165	 59.070210	-9.392055	-14.728070	 21.307890	 3.826179	-11.981600	-11.626340	 3.046839	 15.208500	 5.323790	 0.000000	 0.000000	 0.000000	 0.000000	 0.000000	 0.000000	 0.000000
 0.001596	 1.271255	 0.063398	-0.065954	-0.008782	-179.996000	 177.355500	 1.230171	 17.805620	 2.621711	-12.183990	 0.022403	-2.132197	 71.705540	 4.112401	 1.292262	 28.425850	-2.713146	-177.353700	 1.748292	-17.809060	-2.681898	-12.821580	-0.035147	 2.314735	 71.817020	-4.205745	-1.288183	 28.361890	 2.710176	-0.056036	 2.715325	 1.550446	-0.452001	 3.673576	 0.828444	 0.372358	-4.690384	-2.372567	-101.478000	 1.740669	 90.353380	-1.914578	 64.311620	 4.725461	 6.163716	 12.662710	 0.770531	 10.347200	-4.012332	 6.023012	-6.580301	 5.266122	 0.000000	 0.000000	 0.000000	 0.000000	 0.000000	 0.000000	 0.000000	 0.089846	-3.783161	 0.005928	 0.006343	 1.250165	-0.581340	 101.796200	-0.213309	-89.955440	 1.765411	 57.858420	-9.688302	-16.414710	 23.439260	 4.394170	-11.710540	-12.743800	 2.064075	 15.208500	 5.323790	 0.000000	 0.000000	 0.000000	 0.000000	 0.000000	 0.000000	 0.000000
 0.001596	 1.271255	 0.063398	-0.065950	-0.008782	-179.996000	 177.355500	 1.230127	 17.805480	 2.621694	-12.183930	 0.022400	-2.132565	 71.705540	 4.112817	 1.292262	 28.425850	-2.713146	-177.353700	 1.748237	-17.808950	-2.681883	-12.821510	-0.035144	 2.315039	 71.817020	-4.206095	-1.288183	 28.361890	 2.710176	-0.056027	 2.715320	 1.550443	-0.452065	 3.673400	 0.828440	 0.372390	-4.690284	-2.372568	-101.478000	 1.740674	 90.353400	-1.936743	 64.264110	 4.737611	 6.180490	 12.695960	 0.766872	 10.340590	-4.045208	 6.027510	-6.580301	 5.266122	 0.000000	 0.000000	 0.000000	 0.000000	 0.000000	 0.000000	 0.000000	 0.089846	-3.783161	 0.005928	 0.006343	 1.250200	-0.581349	 101.796200	-0.213320	-89.955440	 2.058410	 56.802100	-9.872165	-17.928370	 25.280140	 4.952172	-11.474030	-13.714530	 1.178723	 15.208500	 5.323790	 0.000000	 0.000000	 0.000000	 0.000000	 0.000000	 0.000000	 0.000000
 0.001596	 1.271255	 0.063398	-0.065945	-0.008777	-179.996000	 177.355500	 1.230120	 17.805600	 2.621683	-12.183890	 0.022395	-2.132200	 71.705470	 4.112420	 1.292262	 28.425850	-2.713146	-177.353700	 1.748287	-17.809070	-2.681896	-12.821580	-0.035144	 2.314726	 71.817010	-4.205737	-1.288183	 28.361890	 2.710176	-0.056031	 2.715319	 1.550446	-0.452008	 3.673578	 0.828442	 0.372355	-4.690397	-2.372568	-101.478000	 1.740672	 90.353390	-1.961473	 64.210170	 4.751647	 6.199499	 12.733570	 0.762687	 10.333310	-4.080348	 6.031914	-6.580301	 5.266122	 0.000000	 0.000000	 0.000000	 0.000000	 0.000000	 0.000000	 0.000000	 0.089846	-3.783161	 0.005928	 0.006343	 1.250200	-0.581349	 101.796200	-0.213317	-89.955440	 2.300932	 55.692480	-9.994827	-19.567730	 27.195960	 5.604533	-11.221030	-14.731540	 0.224666	 15.208500	 5.323790	 0.000000	 0.000000	 0.000000	 0.000000	 0.000000	 0.000000	 0.000000
